# xmcd CD database file
#
# Track frame offsets:
#	150
#	12412
#	32636
#	44448
#	60482
#	71291
#	85847
#	95813
#	112097
#	123844
#	140738
#	158799
#	170730
#	184054
#	200487
#
# Disc length: 2826 seconds
#
# Revision: 0
# Processed by: cddbd v1.5.2PL0 Copyright (c) Steve Scherf et al.
# Submitted via: CDex 1.51
#
DISCID=d30b080f
DTITLE=Chiquititas - Chiquititas
DYEAR=2006
DGENRE=New Age
TTITLE0=Chiquititas 2006
TTITLE1=Corazon con agujeritos
TTITLE2=Todo Todo
TTITLE3=Mentiritas
TTITLE4=Amigas
TTITLE5=Estoy loco
TTITLE6=Hasta diez
TTITLE7=Por una sola vez
TTITLE8=24 Horas
TTITLE9=Donde Estas
TTITLE10=Habia una vez
TTITLE11=Malisima
TTITLE12=Igual a los demas
TTITLE13=Me pasan cosas
TTITLE14=Volar Mejor
EXTD=YEAR: 2006
EXTT0=
EXTT1=
EXTT2=
EXTT3=
EXTT4=
EXTT5=
EXTT6=
EXTT7=
EXTT8=
EXTT9=
EXTT10=
EXTT11=
EXTT12=
EXTT13=
EXTT14=
PLAYORDER=
